<?xml version="1.0" encoding="UTF-8" standalone="no"?>
<!-- Generator: Adobe Illustrator 19.1.0, SVG Export Plug-In . SVG Version: 6.00 Build 0)  -->

<svg
   xmlns:dc="http://purl.org/dc/elements/1.1/"
   xmlns:cc="http://creativecommons.org/ns#"
   xmlns:rdf="http://www.w3.org/1999/02/22-rdf-syntax-ns#"
   xmlns:svg="http://www.w3.org/2000/svg"
   xmlns="http://www.w3.org/2000/svg"
   xmlns:sodipodi="http://sodipodi.sourceforge.net/DTD/sodipodi-0.dtd"
   xmlns:inkscape="http://www.inkscape.org/namespaces/inkscape"
   version="1.1"
   id="レイヤー_1"
   x="0px"
   y="0px"
   viewBox="0 0 110.2 17.4"
   enable-background="new 0 0 144 28"
   xml:space="preserve"
   sodipodi:docname="Suzuki_Motor_Corporation_logo.svg"
   width="110.2"
   height="17.4"
   inkscape:version="0.92.3 (2405546, 2018-03-11)"><metadata
   id="metadata21"><rdf:RDF><cc:Work
       rdf:about=""><dc:format>image/svg+xml</dc:format><dc:type
         rdf:resource="http://purl.org/dc/dcmitype/StillImage" /><dc:title></dc:title></cc:Work></rdf:RDF></metadata><defs
   id="defs19" /><sodipodi:namedview
   pagecolor="#ffffff"
   bordercolor="#666666"
   borderopacity="1"
   objecttolerance="10"
   gridtolerance="10"
   guidetolerance="10"
   inkscape:pageopacity="0"
   inkscape:pageshadow="2"
   inkscape:window-width="1280"
   inkscape:window-height="705"
   id="namedview17"
   showgrid="false"
   fit-margin-top="0"
   fit-margin-left="0"
   fit-margin-right="0"
   fit-margin-bottom="0"
   inkscape:zoom="2.1805556"
   inkscape:cx="38.2"
   inkscape:cy="9"
   inkscape:window-x="-8"
   inkscape:window-y="-8"
   inkscape:window-maximized="1"
   inkscape:current-layer="レイヤー_1" />
<polygon
   points="94,8.8 94,6 75,6 75,10 84.3,10 75,18.8 75,19.6 75,22 94,22 94,18 84.8,18 94,9.2 "
   id="polygon2"
   style="fill:#003399"
   transform="translate(-33.8,-5.6)" />
<rect
   x="104.2"
   y="0.40000001"
   width="6"
   height="16"
   id="rect4"
   style="fill:#003399" />
<polygon
   points="122,11.7 122,6 116,6 116,22 122,22 122,15.7 128.3,22 136.4,22 127.4,13.6 136.6,6 128.5,6 "
   id="polygon6"
   style="fill:#003399"
   transform="translate(-33.8,-5.6)" />
<path
   d="m 74.2,0.4 v 9.7 c 0,1.4 -0.4,3.1 -3.6,3.1 -3.2,0 -3.4,-1.7 -3.4,-3.1 V 0.4 h -6 v 10.2 c 0,4.8 1.3,6.8 9.2,6.8 7.9,0 9.8,-2 9.8,-6.8 V 0.4 Z"
   id="path8"
   inkscape:connector-curvature="0"
   style="fill:#003399" />
<path
   d="m 34.2,0.4 v 9.7 c 0,1.4 -0.4,3.1 -3.6,3.1 -3.2,0 -3.4,-1.7 -3.4,-3.1 V 0.4 h -6 v 10.2 c 0,4.8 1.9,6.8 9.8,6.8 7.9,0 9.2,-2 9.2,-6.8 V 0.4 Z"
   id="path10"
   inkscape:connector-curvature="0"
   style="fill:#003399" />
<path
   d="m 7.7,11.4 c 0.3,1.1 1,1.8 3,1.8 1.5,0 2.2,-0.3 2.2,-0.8 0,-1.3 -0.9,-1.3 -7,-2.1 C -0.1,9.5 0.1,5.7 0.1,5.1 0.1,0 7.3,0 9.8,0 c 4.5,0 9.4,1.4 9.4,5.3 h -7 C 12,4.5 11,3.7 9.2,3.7 7.7,3.7 6.9,4 6.9,4.6 c 0,1.1 0.5,1 6.4,1.9 6,0.9 6.6,3.8 6.6,5.4 0,5.3 -7.4,5 -9.9,5 -6,0 -9.8,-1.3 -10,-5.6 h 7.7 z"
   id="path12"
   inkscape:connector-curvature="0"
   style="fill:#003399" />

</svg>